# File created by Blade
# Date/Time:  Tue Jan 27 19:18:50 2015
#---------------------------------------------------------
:version 1.10
:name HOM
:units
  mass 1.0
  length 1.000000
  angle deg
:documentation
     Acclaim Skeleton File
:root
   axis xyz
   order TX TY TZ RX RY RZ
   position 0.000000 0.000000 0.000000
   orientation 0 0 0
:bonedata
   begin
      id 1
      name Spine_dum
      direction 0.000000 1.000000 0.000000
      length 6.116652
      axis 0.0 0.0 0.0 xyz
   end
   begin
      id 2
      name LeftUpLeg_dum
      direction 1.000000 0.000000 0.000000
      length 4.711765
      axis 0.0 0.0 0.0 xyz
   end
   begin
      id 3
      name RightUpLeg_dum
      direction -1.000000 0.000000 0.000000
      length 4.711765
      axis 0.0 0.0 0.0 xyz
   end
   begin
      id 4
      name Spine
      direction 0.000000 1.000000 0.000000
      length 0.000000
      axis 0.0 0.0 0.0 xyz
      dof rx ry rz
   end
   begin
      id 5
      name Spine_dum1
      direction 0.000000 1.000000 0.000000
      length 15.225563
      axis 0.0 0.0 0.0 xyz
   end
   begin
      id 6
      name Spine_dum2
      direction 0.000000 1.000000 0.000000
      length 8.977654
      axis 0.0 0.0 0.0 xyz
   end
   begin
      id 7
      name Spine_dum3
      direction 0.000000 1.000000 0.000000
      length 8.977654
      axis 0.0 0.0 0.0 xyz
   end
   begin
      id 8
      name Head
      direction 0.000000 1.000000 0.000000
      length 4.527550
      axis 0.0 0.0 0.0 xyz
      dof rx ry rz
   end
   begin
      id 9
      name LeftShoulder
      direction 1.000000 0.000000 0.000000
      length 7.110130
      axis 0.0 0.0 -90.0 xyz
      dof rx ry rz
   end
   begin
      id 10
      name LeftArm
      direction 1.000000 0.000000 0.000000
      length 10.398341
      axis 0.0 0.0 -90.0 xyz
      dof rx ry rz
   end
   begin
      id 11
      name LeftForeArm
      direction 1.000000 0.000000 0.000000
      length 8.888997
      axis 0.0 0.0 -90.0 xyz
      dof ry rz rx
   end
   begin
      id 12
      name LeftHand
      direction 0.000000 0.000000 0.000000
      length 0.000000
      axis 0.0 0.0 -90.0 xyz
      dof rx ry rz
   end
   begin
      id 13
      name LeftHand_dum1
      direction 0.000000 0.000000 0.000000
      length 0.000000
      axis 0.0 0.0 -90.0 xyz
   end
   begin
      id 14
      name LeftHand_dum2
      direction 1.000000 0.000000 0.000000
      length 3.937000
      axis 0.0 0.0 -90.0 xyz
   end
   begin
      id 15
      name LeftHandThumb1
      direction 0.000000 0.000000 1.000000
      length 3.937000
      axis 0.0 0.0 -90.0 xyz
      dof rx rz ry
   end
   begin
      id 16
      name RightShoulder
      direction -1.000000 0.000000 0.000000
      length 7.110130
      axis 0.0 0.0 90.0 xyz
      dof rx ry rz
   end
   begin
      id 17
      name RightArm
      direction -1.000000 0.000000 0.000000
      length 10.398341
      axis 0.0 0.0 90.0 xyz
      dof rx ry rz
   end
   begin
      id 18
      name RightForeArm
      direction -1.000000 0.000000 0.000000
      length 8.888997
      axis 0.0 0.0 90.0 xyz
      dof ry rz rx
   end
   begin
      id 19
      name RightHand
      direction 0.000000 0.000000 0.000000
      length 0.000000
      axis 0.0 0.0 90.0 xyz
      dof rx ry rz
   end
   begin
      id 20
      name RightHand_dum1
      direction 0.000000 0.000000 0.000000
      length 0.000000
      axis 0.0 0.0 90.0 xyz
   end
   begin
      id 21
      name RightHand_dum2
      direction -1.000000 0.000000 0.000000
      length 3.937000
      axis 0.0 0.0 90.0 xyz
   end
   begin
      id 22
      name RightHandThumb1
      direction 0.000000 0.000000 1.000000
      length 3.937000
      axis 0.0 0.0 90.0 xyz
      dof rx rz ry
   end
   begin
      id 23
      name LeftUpLeg
      direction 0.000000 -1.000000 0.000000
      length 15.510451
      axis 0.0 0.0 0.0 xyz
      dof rx ry rz
   end
   begin
      id 24
      name LeftLeg
      direction 0.000000 -1.000000 0.000000
      length 14.858061
      axis 0.0 0.0 0.0 xyz
      dof rx ry rz
   end
   begin
      id 25
      name LeftFoot
      direction 0.000000 -0.258819 0.965926
      length 5.128852
      axis 15.0 0.0 0.0 xyz
      dof rx ry rz
   end
   begin
      id 26
      name LeftToeBase
      direction 0.000000 0.000000 1.000000
      length 2.952750
      axis 0.0 0.0 0.0 xyz
      dof rx ry rz
   end
   begin
      id 27
      name RightUpLeg
      direction 0.000000 -1.000000 0.000000
      length 15.510451
      axis 0.0 0.0 0.0 xyz
      dof rx ry rz
   end
   begin
      id 28
      name RightLeg
      direction 0.000000 -1.000000 0.000000
      length 14.858061
      axis 0.0 0.0 0.0 xyz
      dof rx ry rz
   end
   begin
      id 29
      name RightFoot
      direction 0.000000 -0.258819 0.965926
      length 5.128852
      axis 15.0 0.0 0.0 xyz
      dof rx ry rz
   end
   begin
      id 30
      name RightToeBase
      direction 0.000000 0.000000 1.000000
      length 2.952750
      axis 0.0 0.0 0.0 xyz
      dof rx ry rz
   end
:hierarchy
   begin
      root Spine_dum LeftUpLeg_dum RightUpLeg_dum
      Spine_dum Spine
      LeftUpLeg_dum LeftUpLeg
      RightUpLeg_dum RightUpLeg
      Spine Spine_dum1 Spine_dum2 Spine_dum3
      Spine_dum1 Head
      Spine_dum2 LeftShoulder
      Spine_dum3 RightShoulder
      LeftShoulder LeftArm
      LeftArm LeftForeArm
      LeftForeArm LeftHand
      LeftHand LeftHand_dum1 LeftHand_dum2
      LeftHand_dum1 LeftHandThumb1
      RightShoulder RightArm
      RightArm RightForeArm
      RightForeArm RightHand
      RightHand RightHand_dum1 RightHand_dum2
      RightHand_dum1 RightHandThumb1
      LeftUpLeg LeftLeg
      LeftLeg LeftFoot
      LeftFoot LeftToeBase
      RightUpLeg RightLeg
      RightLeg RightFoot
      RightFoot RightToeBase
   end

# File created by Blade
# Date/Time:  Tue Jan 27 19:18:41 2015
# Frame Rate: 120.000 fps
#------------------------------------------------------
:FULLY-SPECIFIED
:DEGREES
779
root 4.762223 32.278020 1.320816 -0.629885 25.708220 4.003408
Spine -0.950192 26.880225 -2.728020
Head -3.303774 -30.189317 -8.577250
LeftShoulder -6.640125 -8.254365 19.693054
LeftArm -2.255087 38.470137 -98.755678
LeftForeArm 6.266902 0.000000 11.965450
LeftHand 10.592999 0.000000 -4.196873
LeftHandThumb1 -26.253704 0.000000 33.147579
RightShoulder -1.069146 24.282794 -53.360761
RightArm 68.643440 1.050478 47.334083
RightForeArm 20.650013 0.000000 92.663783
RightHand 25.199435 0.000000 -6.479583
RightHandThumb1 -24.326973 -0.000000 -32.862282
LeftUpLeg 5.490459 -16.045102 -4.266176
LeftLeg 3.061606 -0.000000 -0.000000
LeftFoot -12.221244 5.413184 -21.272405
LeftToeBase 18.449101 -0.000000 -0.000000
RightUpLeg 13.814469 -22.022182 -3.312310
RightLeg -2.786987 -0.000000 0.000000
RightFoot -18.058769 -22.483745 19.531529
RightToeBase 9.561330 -0.000000 -0.000000
780
root 4.754401 32.274401 1.326275 -0.696464 25.715950 3.983429
Spine -0.879711 27.002311 -2.775456
Head -3.401844 -30.302697 -8.460658
LeftShoulder -6.612544 -8.277355 19.700217
LeftArm -2.207430 38.318598 -98.738823
LeftForeArm 6.176711 -0.000000 12.085537
LeftHand 10.575610 0.000000 -4.191165
LeftHandThumb1 -26.253704 0.000000 33.147579
RightShoulder -1.010604 24.382295 -53.272492
RightArm 68.532271 0.664864 47.408878
RightForeArm 20.899912 -0.000000 92.488442
RightHand 25.272522 -0.000000 -6.501563
RightHandThumb1 -24.326973 -0.000000 -32.862282
LeftUpLeg 5.521990 -16.087266 -4.254374
LeftLeg 3.141379 -0.000000 -0.000000
LeftFoot -12.293232 5.387397 -21.399276
LeftToeBase 18.360217 -0.000000 -0.000000
RightUpLeg 13.846298 -22.026552 -3.305823
RightLeg -2.710526 -0.000000 0.000000
RightFoot -18.122617 -22.445222 19.556947
RightToeBase 9.536074 -0.000000 -0.000000
781
root 4.747497 32.269844 1.330474 -0.767292 25.713574 3.963272
Spine -0.808339 27.123681 -2.823210
Head -3.486488 -30.383647 -8.314714
LeftShoulder -6.577750 -8.294712 19.739412
LeftArm -2.176635 38.148855 -98.758117
LeftForeArm 6.100584 -0.000000 12.216379
LeftHand 10.608174 -0.000000 -4.227697
LeftHandThumb1 -26.253704 0.000000 33.147579
RightShoulder -0.958405 24.867325 -53.297909
RightArm 68.015351 0.108142 47.546463
RightForeArm 21.095989 0.000000 92.367186
RightHand 25.343291 -0.000000 -6.554052
RightHandThumb1 -24.326973 -0.000000 -32.862282
LeftUpLeg 5.562821 -16.145639 -4.248112
LeftLeg 3.202186 -0.000000 -0.000000
LeftFoot -12.402854 5.406575 -21.465104
LeftToeBase 18.372219 -0.000000 -0.000000
RightUpLeg 13.879684 -22.053895 -3.309061
RightLeg -2.630337 -0.000000 0.000000
RightFoot -18.185926 -22.379139 19.565606
RightToeBase 9.516514 -0.000000 -0.000000
782
root 4.740475 32.268495 1.333057 -0.806978 25.700960 3.941158
Spine -0.761945 27.250539 -2.873778
Head -3.601163 -30.427026 -8.184993
LeftShoulder -6.556004 -8.293403 19.759615
LeftArm -2.150929 38.019575 -98.761095
LeftForeArm 6.033103 -0.000000 12.401481
LeftHand 10.620794 -0.000000 -4.191495
LeftHandThumb1 -26.253704 0.000000 33.147579
RightShoulder -0.943475 24.836738 -53.258189
RightArm 67.949682 -0.059056 47.579626
RightForeArm 21.259317 -0.000000 92.228602
RightHand 25.245513 -0.000000 -6.591476
RightHandThumb1 -24.326973 -0.000000 -32.862282
LeftUpLeg 5.574632 -16.177263 -4.229815
LeftLeg 3.242775 -0.000000 -0.000000
LeftFoot -12.452680 5.429819 -21.501944
LeftToeBase 18.002273 -0.000000 -0.000000
RightUpLeg 13.884989 -22.041824 -3.288435
RightLeg -2.584021 -0.000000 0.000000
RightFoot -18.223345 -22.354721 19.596163
RightToeBase 9.554051 -0.000000 -0.000000
783
root 4.733465 32.268501 1.334639 -0.822410 25.698533 3.917186
Spine -0.748801 27.345135 -2.933296
Head -3.711313 -30.451899 -8.064615
LeftShoulder -6.544839 -8.287477 19.780388
LeftArm -2.152195 37.957129 -98.773004
LeftForeArm 5.959432 -0.000000 12.616707
LeftHand 10.647389 0.000000 -4.190855
LeftHandThumb1 -26.253704 0.000000 33.147579
RightShoulder -0.929030 24.674495 -53.190785
RightArm 67.973711 -0.053189 47.565822
RightForeArm 21.439775 -0.000000 91.983963
RightHand 25.569935 -0.000000 -6.037498
RightHandThumb1 -24.326973 -0.000000 -32.862282
LeftUpLeg 5.562489 -16.224229 -4.205886
LeftLeg 3.277791 -0.000000 -0.000000
LeftFoot -12.488931 5.486706 -21.460522
LeftToeBase 17.959844 -0.000000 -0.000000
RightUpLeg 13.875219 -22.050482 -3.262660
RightLeg -2.554241 -0.000000 0.000000
RightFoot -18.226177 -22.315777 19.620990
RightToeBase 9.576540 -0.000000 -0.000000
784
root 4.725256 32.269088 1.337279 -0.833233 25.691581 3.878933
Spine -0.755041 27.409611 -2.980744
Head -3.811769 -30.451901 -7.951081
LeftShoulder -6.542535 -8.278783 19.802610
LeftArm -2.192826 37.918135 -98.789954
LeftForeArm 5.941905 -0.000000 12.865458
LeftHand 10.662403 -0.000000 -4.403395
LeftHandThumb1 -26.253704 0.000000 33.147579
RightShoulder -0.916991 24.490211 -53.142305
RightArm 68.061297 -0.017854 47.420557
RightForeArm 21.233371 0.000000 91.807264
RightHand 25.367064 -0.000000 -6.516795
RightHandThumb1 -24.326973 -0.000000 -32.862282
LeftUpLeg 5.537122 -16.192714 -4.154158
LeftLeg 3.314178 -0.000000 -0.000000
LeftFoot -12.517023 5.464973 -21.462900
LeftToeBase 17.998643 -0.000000 -0.000000
RightUpLeg 13.858205 -22.116724 -3.228946
RightLeg -2.529281 -0.000000 0.000000
RightFoot -18.175895 -22.249121 19.581847
RightToeBase 9.523835 -0.000000 -0.000000
785
root 4.718805 32.270744 1.339077 -0.812774 25.684460 3.850880
Spine -0.796897 27.475975 -3.057177
Head -3.912201 -30.441808 -7.841080
LeftShoulder -6.545162 -8.266370 19.830383
LeftArm -2.248299 37.919084 -98.818744
LeftForeArm 5.934008 -0.000000 13.121501
LeftHand 10.636598 -0.000000 -4.320493
LeftHandThumb1 -26.253704 0.000000 33.147579
RightShoulder -0.950433 24.394949 -53.111748
RightArm 68.087429 -0.008268 47.296834
RightForeArm 21.150593 -0.000000 91.621866
RightHand 25.083691 0.000000 -6.526787
RightHandThumb1 -24.326973 -0.000000 -32.862282
LeftUpLeg 5.496922 -16.187518 -4.108964
LeftLeg 3.326860 -0.000000 -0.000000
LeftFoot -12.532712 5.470180 -21.465451
LeftToeBase 17.966090 -0.000000 -0.000000
RightUpLeg 13.823472 -22.150867 -3.192595
RightLeg -2.527641 -0.000000 0.000000
RightFoot -18.151506 -22.179978 19.609140
RightToeBase 9.564029 -0.000000 -0.000000
786
root 4.715563 32.274823 1.337161 -0.742556 25.666862 3.870113
Spine -0.876583 27.534760 -3.183006
Head -4.002583 -30.460206 -7.736127
LeftShoulder -6.550407 -8.244538 19.834051
LeftArm -2.303817 37.991721 -98.832802
LeftForeArm 5.826650 0.000000 13.366823
LeftHand 10.667973 -0.000000 -4.246048
LeftHandThumb1 -26.253704 0.000000 33.147579
RightShoulder -0.977449 24.305593 -53.116593
RightArm 68.036948 0.024072 47.202251
RightForeArm 21.263190 0.000000 91.407691
RightHand 25.510167 -0.000000 -6.099203
RightHandThumb1 -24.326973 -0.000000 -32.862282
LeftUpLeg 5.465966 -16.410644 -4.137498
LeftLeg 3.273501 -0.000000 -0.000000
LeftFoot -12.564289 5.716290 -21.562785
LeftToeBase 18.225928 -0.000000 -0.000000
RightUpLeg 13.748730 -22.162626 -3.191228
RightLeg -2.524431 -0.000000 0.000000
RightFoot -18.130377 -22.116268 19.654227
RightToeBase 9.618655 -0.000000 -0.000000
787
root 4.705288 32.275901 1.339037 -0.685778 25.675705 3.816312
Spine -0.988211 27.527666 -3.260600
Head -4.077181 -30.405745 -7.636095
LeftShoulder -6.580495 -8.202029 19.866333
LeftArm -2.363597 38.054407 -98.852896
LeftForeArm 5.729538 0.000000 13.623629
LeftHand 10.744569 -0.000000 -4.422757
LeftHandThumb1 -26.253704 0.000000 33.147579
RightShoulder -0.992330 24.624400 -53.174633
RightArm 67.708540 -0.207912 47.033965
RightForeArm 20.989685 -0.000000 91.302594
RightHand 25.318097 0.000000 -6.922399
RightHandThumb1 -24.326973 -0.000000 -32.862282
LeftUpLeg 5.327746 -16.179328 -4.018548
LeftLeg 3.354942 -0.000000 -0.000000
LeftFoot -12.522420 5.497130 -21.464727
LeftToeBase 18.163747 -0.000000 -0.000000
RightUpLeg 13.673994 -22.178240 -3.094993
RightLeg -2.556384 -0.000000 0.000000
RightFoot -18.073890 -22.103908 19.659473
RightToeBase 9.635316 -0.000000 -0.000000
788
root 4.700338 32.278283 1.339513 -0.630698 25.666010 3.783696
Spine -1.081683 27.529392 -3.329726
Head -4.157922 -30.331088 -7.573610
LeftShoulder -6.614237 -8.196194 19.873371
LeftArm -2.469857 38.148145 -98.899927
LeftForeArm 5.672789 -0.000000 13.851426
LeftHand 10.707974 -0.000000 -4.407401
LeftHandThumb1 -26.253704 0.000000 33.147579
RightShoulder -0.984581 24.631923 -53.185420
RightArm 67.582631 -0.173100 46.887599
RightForeArm 20.805577 -0.000000 91.177238
RightHand 25.425094 -0.000000 -6.896849
RightHandThumb1 -24.326973 -0.000000 -32.862282
LeftUpLeg 5.252183 -16.106449 -3.952007
LeftLeg 3.353433 -0.000000 -0.000000
LeftFoot -12.511607 5.434039 -21.464923
LeftToeBase 18.191766 -0.000000 -0.000000
RightUpLeg 13.610121 -22.178464 -3.032500
RightLeg -2.589101 -0.000000 0.000000
RightFoot -18.010654 -22.103793 19.663487
RightToeBase 9.609850 -0.000000 -0.000000
789
root 4.691605 32.280154 1.339004 -0.573712 25.672073 3.766779
Spine -1.161588 27.511598 -3.418978
Head -4.248364 -30.288412 -7.485022
LeftShoulder -6.623711 -8.177530 19.874405
LeftArm -2.541866 38.226557 -98.910065
LeftForeArm 5.629749 -0.000000 14.061997
LeftHand 10.727365 0.000000 -4.303617
LeftHandThumb1 -26.253704 0.000000 33.147579
RightShoulder -0.942703 24.255355 -53.157848
RightArm 67.711422 0.184197 46.727531
RightForeArm 20.945329 -0.000000 91.126751
RightHand 25.178277 -0.000000 -6.755592
RightHandThumb1 -24.326973 -0.000000 -32.862282
LeftUpLeg 5.187250 -16.092774 -3.896519
LeftLeg 3.329017 -0.000000 -0.000000
LeftFoot -12.475446 5.402261 -21.472992
LeftToeBase 18.210341 -0.000000 -0.000000
RightUpLeg 13.544670 -22.195927 -2.978380
RightLeg -2.608287 -0.000000 0.000000
RightFoot -17.963244 -22.106890 19.624286
RightToeBase 9.568153 -0.000000 -0.000000
790
root 4.691525 32.285219 1.340308 -0.504952 25.663090 3.766199
Spine -1.255177 27.472162 -3.487091
Head -4.333819 -30.230324 -7.482047
LeftShoulder -6.690905 -8.151661 19.820254
LeftArm -2.638148 38.346638 -98.910978
LeftForeArm 5.614510 0.000000 14.240806
LeftHand 10.763195 -0.000000 -4.321168
LeftHandThumb1 -26.253704 0.000000 33.147579
RightShoulder -0.922602 23.508070 -53.054978
RightArm 68.254651 0.747986 46.516843
RightForeArm 21.104732 0.000000 90.968820
RightHand 25.307294 -0.000000 -6.634276
RightHandThumb1 -24.326973 -0.000000 -32.862282
LeftUpLeg 5.138974 -16.090881 -3.877822
LeftLeg 3.278001 -0.000000 -0.000000
LeftFoot -12.408028 5.446383 -21.403083
LeftToeBase 17.964313 -0.000000 -0.000000
RightUpLeg 13.491090 -22.179596 -2.950637
RightLeg -2.653278 -0.000000 0.000000
RightFoot -17.895066 -22.101400 19.640162
RightToeBase 9.557670 -0.000000 -0.000000
